<?xml version="1.0" encoding="UTF-8"?>
<svg 
xmlns="http://www.w3.org/2000/svg" 
xml:space="preserve"

version="1.1" 
style="shape-rendering:geometricPrecision; text-rendering:geometricPrecision; image-rendering:optimizeQuality; fill-rule:evenodd; clip-rule:evenodd"
viewBox="0 0 21200 12400"
x='0px'
y='0px'
enableBackground='0 0 21200 12400'
role='img'
xmlns:xlink="http://www.w3.org/1999/xlink">
 <!-- <defs>
  <style type="text/css">
   <![CDATA[
    .fil0 {fill:#2B2A29;fill-rule:nonzero}
   ]]>
  </style>
 </defs> -->
 <g id="Слой_x0020_1">
  <metadata id="CorelCorpID_0Corel-Layer"/>
  <g id="_1693316795984">
   <g>
    <polygon class="fil0" points="10747.25,5805.65 10747.25,1642.23 6608.11,1642.23 8219.77,30.49 12371.08,30.49 12371.08,2059.33 12371.08,4182.05 "/>
    <polygon class="fil0" points="12371.01,12388.7 8220,12388.7 6608.03,10776.73 10747.17,10776.73 10747.17,6619.09 12371.01,8243.47 "/>
    <polygon class="fil0" points="13.11,4181.89 13.11,2059.1 13.11,30.57 4164.35,30.57 5776.08,1642.3 1636.64,1642.3 1636.64,5805.73 "/>
    <polygon class="fil0" points="13.11,8242.77 1636.64,6618.39 1636.64,10776.26 5776.08,10776.26 4164.12,12388.23 13.11,12388.78 "/>
    <g>
     <polygon class="fil0" points="14363.53,5564.26 14363.53,4358.7 14620.23,4358.7 14620.23,5137.54 15179,4358.7 15442.97,4358.7 15442.97,5564.26 15186.03,5564.26 15186.03,4756.28 14611.33,5564.26 "/>
     <polygon class="fil0" points="15640.7,5564.26 15640.7,4691.23 15870.46,4691.23 15870.46,5014.62 16231.81,5014.62 16231.81,4691.23 16461.56,4691.23 16461.56,5564.26 16231.81,5564.26 16231.81,5215.33 15870.46,5215.33 15870.46,5564.26 "/>
     <path class="fil0" d="M17185.82 4803.14l0 -444.44 229.52 0 0 442.8c57.87,-84.97 140.97,-132.06 233.27,-132.06 193.13,0 334.41,166.26 334.41,457.33 0,291.14 -141.28,459.27 -334.41,459.27 -90.43,0 -171.96,-43.57 -233.27,-134.01l0 444.76 -229.52 0 0 -444.76c-57.79,86.92 -140.96,134.01 -233.27,134.01 -193.44,0 -334.4,-166.26 -334.4,-457.4 0,-291.06 140.96,-459.2 334.4,-459.2 90.43,0 169.78,43.26 233.27,133.7zm-336.28 325.5l0 0c0,149.86 73.96,252.95 177.04,252.95 59.75,0 126.68,-43.34 159.24,-99.26l0 -309.18c-30.92,-54.35 -99.49,-99.57 -159.24,-99.57 -103.08,0 -177.04,103.09 -177.04,255.06zm900.21 -1.87l0 0c0,-150.1 -72.4,-253.19 -177.28,-253.19 -57.87,0 -126.44,43.66 -157.13,99.57l0 309.18c30.69,54.04 99.26,99.26 157.13,99.26 104.88,0 177.28,-103.09 177.28,-254.82z"/>
     <path class="fil0" d="M18083.14 5126.77c0,-247.49 173.53,-457.33 460.84,-457.33 289.26,0 462.79,209.84 462.79,457.33 0,249.43 -173.53,459.27 -462.79,459.27 -287.31,0 -460.84,-209.84 -460.84,-459.27zm684.97 0l0 0c0,-135.58 -81.22,-253.19 -224.13,-253.19 -142.6,0 -222.26,117.61 -222.26,253.19 0,137.52 79.66,254.82 222.26,254.82 142.91,0 224.13,-117.3 224.13,-254.82z"/>
     <path class="fil0" d="M19371.32 5452.03l0 444.76 -229.76 0 0 -1205.56 229.76 0 0 110.27c66.69,-84.97 162.52,-132.06 269.27,-132.06 224.14,0 386.65,166.26 386.65,457.33 0,291.14 -162.51,459.27 -386.65,459.27 -103,0 -198.83,-43.57 -269.27,-134.01zm417.58 -325.26l0 0c0,-150.1 -88.8,-253.19 -220.62,-253.19 -74.27,0 -159,43.66 -196.96,99.57l0 309.18c37.96,54.04 122.69,99.26 196.96,99.26 131.82,0 220.62,-103.09 220.62,-254.82z"/>
    </g>
    <g>
     <polygon class="fil0" points="20954.08,5564.26 20954.08,4996.58 20721.12,5564.26 20616.16,5564.26 20381.33,4996.58 20381.33,5564.26 20151.57,5564.26 20151.57,4691.23 20453.41,4691.23 20668.64,5211.81 20880.12,4691.23 21183.91,4691.23 21183.91,5564.26 "/>
    </g>
    <g>
     <path class="fil0" d="M14352.83 2584.29l0 -2543.25 1189.71 0c552.91,0 853.89,373.68 853.89,819.76 0,442.26 -304.8,819.77 -853.89,819.77l-648.12 0 0 903.72 -541.59 0zm1491 -1723.49l0 0c0,-213.35 -160.33,-343.07 -373.69,-343.07l-575.72 0 0 686.38 575.72 0c213.36,0 373.69,-133.46 373.69,-343.31z"/>
     <polygon class="fil0" points="17247.75,2584.29 17247.75,517.73 16504.13,517.73 16504.13,41.04 18532.65,41.04 18532.65,517.73 17792.86,517.73 17792.86,2584.29 "/>
    </g>
   </g>
  </g>
 </g>
</svg>
